<svg height="24" width="24" version="1.1" id="_x32_" xmlns="http://www.w3.org/2000/svg" viewBox="0 0 512 512" xml:space="preserve" fill="#000"><g id="SVGRepo_iconCarrier"><style>.st0{fill:#fff}</style><path class="st0" d="M383.301 168.546c-6.107 8.825-12.711 17.27-19.676 25.413a329.324 329.324 0 0 1-92.144 74.679c-.058 2.22-.058 4.442-.058 6.604 0 34.227 5.98 68.202 17.455 100.219 5.98-2.591 11.834-5.367 17.698-8.27 76.344-38.046 139.189-97.131 181.939-171.012a418.298 418.298 0 0 0 10.724-19.86c-5.367-16.461-12.584-32.688-21.585-48.292-13.081-22.626-29.046-42.487-47.172-59.328a326.471 326.471 0 0 1-38.552 86.961c-2.775 4.383-5.61 8.698-8.629 12.886zM358.19 148.385h.068a239.975 239.975 0 0 0 6.536-9.867c17.63-27.877 30.78-58.9 38.231-92.076-6.78-4.752-13.744-9.194-20.893-13.198C343.638 11.532 299.983 0 255.762.059c-43.422 0-87.332 10.986-127.725 34.286a254.77 254.77 0 0 0-32.318 22.15c86.221 2.834 169.413 29.356 241.443 77.085 7.158 4.752 14.191 9.681 21.028 14.805zM110.952 193.404c10.676.926 21.283 2.465 31.822 4.5 39.283 7.587 77.095 22.325 111.323 43.666a297.426 297.426 0 0 0 84.488-67.714c-6.224-4.686-12.643-9.185-19.179-13.51-71.056-47.124-153.692-72.04-239.037-72.04-6.048 0-12.155.137-18.195.439-11.045 12.828-20.718 26.581-28.929 41.133-12.458 22.14-21.585 45.955-27.069 70.618 24.546-5.796 49.452-8.572 74.192-8.572 10.237 0 20.405.496 30.584 1.48zM104.601 246.625c.429-7.149 1.052-14.309 1.782-21.458-8.63-.809-17.328-1.179-26.016-1.179-26.523 0-53.29 3.585-79.433 10.92A243.489 243.489 0 0 0 0 256.249c.059 43.422 11.045 87.332 34.354 127.725 23.748 41.074 57.05 73.013 95.534 94.783 8.873 5.065 18.068 9.506 27.496 13.383-35.328-66.974-53.708-141.04-53.708-216.528 0-9.681.312-19.363.925-28.987zM271.482 416.964a296.81 296.81 0 0 1-12.399-29.601 328.689 328.689 0 0 1-19.724-112.121c0-1.666 0-3.331.059-4.997-31.024-19.801-65.435-33.487-101.202-40.51-.681 6.224-1.237 12.506-1.607 18.867-.556 9-.867 18.01-.867 27.01 0 75.799 19.861 149.924 57.975 216.041a361.726 361.726 0 0 0 8.873 14.61h.069a255.53 255.53 0 0 0 53.601 5.678c24.477 0 49.022-3.516 73.071-10.733a326.145 326.145 0 0 1-47.416-64.082c-3.712-6.594-7.229-13.315-10.433-20.162zM509.848 222.878c-45.576 74.387-110.7 134.086-188.962 172.989-6.477 3.214-12.956 6.292-19.549 9.136a273.384 273.384 0 0 0 8.503 16.335c13.939 24.672 31.452 47.425 52.423 67.53 7.344-3.39 14.62-7.082 21.712-11.212 41.133-23.756 73.013-57.049 94.793-95.533C500.477 343.639 512 299.973 512 255.752c-.059-10.978-.73-21.945-2.152-32.874z"/></g></svg>